<?xml version="1.0" encoding="UTF-8" standalone="no"?>
<svg
   xmlns:dc="http://purl.org/dc/elements/1.1/"
   xmlns:cc="http://creativecommons.org/ns#"
   xmlns:rdf="http://www.w3.org/1999/02/22-rdf-syntax-ns#"
   xmlns:svg="http://www.w3.org/2000/svg"
   xmlns="http://www.w3.org/2000/svg"
   viewBox="0 0 197.83652 511.89197"
   height="511.89197"
   width="197.83652"
   xml:space="preserve"
   id="svg2"
   version="1.1"><metadata
     id="metadata8"><rdf:RDF><cc:Work
         rdf:about=""><dc:format>image/svg+xml</dc:format><dc:type
           rdf:resource="http://purl.org/dc/dcmitype/StillImage" /><dc:title></dc:title></cc:Work></rdf:RDF></metadata><defs
     id="defs6" /><g
     transform="matrix(1.3333333,0,0,-1.3333333,-594.34445,-279.55751)"
     id="g10"><g
       transform="scale(0.1)"
       id="g12"><g
         transform="translate(2319.7576,-6455.0703)"
         id="g447"><path
           d="m 2614.41,694.27 c 71.96,-19.969 147.68,-22.411 220.8,-7.098 13.85,-55.961 9.13,-114.902 -13.4,-167.973 -205.57,0 -308.35,0 -308.35,0 67.3,116.723 100.95,175.071 100.95,175.071"
           style="fill:#342c49;fill-opacity:1;fill-rule:evenodd;stroke:none"
           id="path116" /><path
           d="m 3071.59,694.27 c -71.97,-19.969 -147.69,-22.411 -220.81,-7.098 -13.85,-55.961 -9.14,-114.902 13.4,-167.973 205.57,0 308.36,0 308.36,0 -67.31,116.723 -100.95,175.071 -100.95,175.071"
           style="fill:#342c49;fill-opacity:1;fill-rule:evenodd;stroke:none"
           id="path118" /><path
           d="m 2591.55,698.219 c 78.22,-16.59 159.04,-16.848 237.37,-0.77 -11.45,-75.758 -78.9,-130.199 -155.36,-125.39 -28.92,3.339 -54.83,19.39 -70.69,43.781 -15.85,24.41 -20.01,54.601 -11.32,82.379"
           style="fill:#f79179;fill-opacity:1;fill-rule:evenodd;stroke:none"
           id="path120" /><path
           d="m 3096.64,698.219 c -76.27,-16.59 -155.07,-16.848 -231.44,-0.77 11.16,-75.758 76.92,-130.199 151.47,-125.39 28.19,3.339 53.47,19.39 68.93,43.781 15.46,24.41 19.51,54.601 11.04,82.379"
           style="fill:#f79179;fill-opacity:1;fill-rule:evenodd;stroke:none"
           id="path122" /><path
           d="m 2327.19,2499.26 c -42.31,-3.71 -84.86,3.21 -123.83,20.11 -6.18,-75.48 10.57,-151.08 48.11,-216.86 4.76,-9.81 14.33,-16.36 25.18,-17.25 10.84,-0.9 21.37,4 27.67,12.89 5.81,-11.97 11.35,-21.8 22.45,-25.32 11.08,-3.51 20.84,0.33 28.41,9.17 11.89,-11.74 30.96,-13.09 43.76,-2.37 9.06,7.57 7.86,19.97 1.59,39.43 -5.65,17.52 -10.41,37.66 -18.92,58.36 14.53,-12.65 44.2,-10.49 55.99,3.55 8.91,10.65 3.4,22.11 -9.86,31.54 -10.93,7.76 -19.58,18.31 -26.82,29.58 -17.28,26.92 -43.35,47.07 -73.73,57.17"
           style="fill:#f79179;fill-opacity:1;fill-rule:evenodd;stroke:none"
           id="path124" /><path
           d="m 3435.24,2515.03 c 42.29,-3.7 84.86,3.21 123.82,20.12 6.19,-75.5 -10.57,-151.09 -48.1,-216.88 -4.76,-9.8 -14.33,-16.36 -25.18,-17.24 -10.86,-0.89 -21.37,4 -27.67,12.9 -5.81,-11.99 -11.36,-21.8 -22.46,-25.32 -11.07,-3.52 -20.83,0.32 -28.4,9.16 -11.9,-11.74 -30.98,-13.08 -43.77,-2.36 -9.05,7.56 -7.85,19.97 -1.58,39.42 5.65,17.51 10.39,37.67 18.92,58.35 -14.54,-12.65 -44.2,-10.48 -55.99,3.55 -8.92,10.66 -3.4,22.13 9.86,31.56 10.91,7.74 19.57,18.3 26.81,29.58 17.28,26.92 43.36,47.07 73.74,57.16"
           style="fill:#f79179;fill-opacity:1;fill-rule:evenodd;stroke:none"
           id="path126" /><path
           d="m 2973.63,3530.93 c -34.3,-32.42 -90.07,-28.21 -134.08,-11.13 -44.02,17.08 -66.77,58.44 -91.45,98.69 -26.11,42.6 -66.11,50.83 -89.91,41.79 -34.76,-13.18 -73.66,-9 -101.88,15.19 -28.24,24.21 -41.31,62.78 -30.59,98.37 11.08,36.91 -0.23,62.37 -30.77,86.76 -58.83,46.97 -61.87,133.86 -16.56,193.99 19.75,26.21 20.2,60.55 15.78,93.07 -5.83,42.86 16.54,84.85 50.68,111.44 34.14,26.58 79.85,36.78 120.45,21.83 31.55,-11.6 65.42,-0.05 82.01,29.18 16.6,29.23 48.54,46.44 82.12,48.15 33.58,1.72 64.86,-13.89 86.65,-39.47 20.55,-24.13 42.37,-28.09 64.26,-18.95 27.52,11.49 47.03,-2.83 56.79,-38.64 16.17,9.23 35.53,11.16 53.2,5.29 17.66,-5.85 32.05,-18.95 39.46,-36.04 7.07,-16.29 20.62,-28.95 37.41,-34.79 16.79,-5.82 34.51,-2.8 50.93,4.04 62.95,26.2 137.52,5.62 177.43,-49.69 16.7,-23.13 19.5,-53.61 12.7,-81.31 -6.82,-27.72 -25.49,-49.95 -48.97,-66.16 -46.27,-31.93 -62.22,-94.83 -37.07,-145.12 23.57,-47.15 8.59,-102.77 -35.48,-131.69 -29.52,-19.37 -30.89,-56.73 -21.3,-90.7 9.71,-34.41 -16.8,-69.32 -49.03,-84.81 -32.22,-15.51 -69.77,-8.71 -96.86,14.62 -22.07,18.98 -52.73,24.59 -81.07,17.99 -28.36,-6.59 -43.71,-31.9 -64.85,-51.9"
           style="fill:#57afcf;fill-opacity:1;fill-rule:evenodd;stroke:none"
           id="path128" /><path
           d="m 3115.73,3617.21 c 48.89,3.46 93.46,-23.09 112.55,-67.02 95.04,-9.84 163.74,-90.1 159.35,-186.13 60.3,-36.34 95.79,-102.32 93.71,-174.28 83.65,-82.93 105.89,-210.84 56.25,-323.34 52.86,-58.87 67.94,-143.5 39.31,-220.8 -233.88,-74.22 -1157.68,-75.37 -1391.33,0 -24.74,77.3 -5.38,161.93 50.46,220.8 -43.97,112.5 -15.25,240.41 72.56,323.34 1.57,71.96 40.39,137.94 102.53,174.28 0.46,96.03 73.23,176.29 168.75,186.13 21.31,43.93 67.22,70.48 115.94,67.02 190.61,-50.76 229.22,-50.1 419.92,0"
           style="fill:#342c49;fill-opacity:1;fill-rule:evenodd;stroke:none"
           id="path130" /><path
           d="m 2574.54,3435.64 c -34.99,-28.07 -49.61,-74.44 -37.07,-117.51 -54.21,-53.19 -66.76,-135.81 -30.78,-202.69 -56.4,-62.99 -70.04,-153.44 -34.7,-230.26 -59.93,-70.27 -81.21,-165.66 -56.78,-254.73"
           style="fill:none;stroke:#ffffff;stroke-width:8.99986;stroke-linecap:butt;stroke-linejoin:miter;stroke-miterlimit:22.9256;stroke-dasharray:none;stroke-opacity:1"
           id="path132" /><path
           d="m 3203.86,3426.15 c 36.85,-42.66 46.61,-102.41 25.23,-154.58 41.42,-49.03 52.9,-116.71 29.98,-176.65 53.69,-63.92 59.44,-155.38 14.18,-225.53 62.34,-65.57 83.57,-160.12 55.22,-246.05"
           style="fill:none;stroke:#ffffff;stroke-width:8.99986;stroke-linecap:butt;stroke-linejoin:miter;stroke-miterlimit:22.9256;stroke-dasharray:none;stroke-opacity:1"
           id="path134" /><path
           d="m 2879.41,3542.71 c -21.29,-327.7 -34.96,-655.85 -41,-984.19"
           style="fill:none;stroke:#ffffff;stroke-width:8.99986;stroke-linecap:butt;stroke-linejoin:miter;stroke-miterlimit:22.9256;stroke-dasharray:none;stroke-opacity:1"
           id="path136" /><path
           d="m 2384.95,3187.04 c 17.59,2.01 35.4,1.49 52.84,-1.59 m 160.87,140.38 c 57.39,5.49 115.12,6.8 172.71,3.94 m -309.94,16.17 c 11.98,-1.87 23.85,-4.49 35.49,-7.88 m 135.23,-210.55 c 21.46,2.57 43.11,3.1 64.66,1.57 M 2592.7,2883.82 c 47.21,7.45 95.12,9.3 142.74,5.52 m 309.93,7.89 c 29.33,1.32 58.7,-0.81 87.53,-6.3 m -100.93,232.62 c 36.06,0.44 72.04,-3.27 107.25,-11.05 m 228.74,-258.67 c 24.22,0.72 48.4,2.03 72.56,3.94 m -112.77,302.05 c 17.97,2.22 35.86,5.1 53.62,8.68 m -71,170.32 c 9.25,1.03 18.27,3.43 26.82,7.09 M 2316.34,2872.38 c 24.13,1.93 48.34,2.71 72.55,2.37"
           style="fill:none;stroke:#ffffff;stroke-width:8.99986;stroke-linecap:round;stroke-linejoin:round;stroke-miterlimit:22.9256;stroke-dasharray:none;stroke-opacity:1"
           id="path138" /><path
           d="m 2976.03,3529.63 c 39.12,6.89 77.42,17.72 114.36,32.36 9.75,-134.07 6.59,-268.75 -9.48,-402.21 -42.39,-5.28 -85.24,-5.81 -127.76,-1.56 -2.12,124.21 5.53,248.41 22.88,371.41"
           style="fill:#f0451d;fill-opacity:1;fill-rule:evenodd;stroke:none"
           id="path140" /><path
           d="m 2948.99,2478.36 c -173.57,-29.25 -351.39,-23.35 -522.96,17.35 -66.97,-605.19 -27.88,-1217.89 115.52,-1810.608 93.54,-53.723 207.23,-58.43 304.44,-12.641 41.33,601.519 75.65,1203.529 103,1805.899"
           style="fill:#f0451d;fill-opacity:1;fill-rule:evenodd;stroke:none"
           id="path142" /><path
           d="m 3307.8,2494.11 c -154.56,-18.31 -311.19,12.6 -447.6,88.34 -19.41,-1278.58 -16.52,-1912.36 -16.52,-1912.36 88.77,-41.488 195.11,-37.371 279.9,11.031 204.84,605.659 275.92,1396.099 184.22,1812.989"
           style="fill:#f0451d;fill-opacity:1;fill-rule:evenodd;stroke:none"
           id="path144" /><path
           d="m 2780.82,3764.33 c 38.64,-34.17 89.35,-51.41 140.8,-47.86 51.45,3.57 99.32,27.63 132.86,66.79 25.35,-7.46 44.16,-28.83 48.36,-54.92 4.21,-26.08 -7.67,-51.26 -28.65,-67.32 -91.23,-69.79 -216.02,-74.89 -311.5,-11.04 -20.84,13.92 -32.11,38.33 -28.19,63.08 3.93,24.75 22.1,44.85 46.32,51.27"
           style="fill:#f0451d;fill-opacity:1;fill-rule:evenodd;stroke:none"
           id="path146" /><path
           d="m 3088.39,3695.7 c -95.31,-82.92 -234.5,-91.34 -339.12,-20.48 -26.64,-7.45 -46.32,-30 -50.07,-57.39 -3.77,-27.41 9.88,-53.21 32.72,-68.79 125.28,-85.44 293.48,-74.19 402.2,31.55 19.08,18.54 23.79,47.47 13.98,72.19 -9.82,24.73 -33.13,41.5 -59.71,42.92"
           style="fill:#f0451d;fill-opacity:1;fill-rule:evenodd;stroke:none"
           id="path148" /><path
           d="m 2698.1,3944.55 c -20.58,86.94 -14.09,178.71 43.65,245.35 57.74,66.64 145.97,92.58 226.78,66.7 80.8,-25.87 147.61,-88.9 151.64,-187.9 3.25,-79.87 -4.12,-137.91 -30.91,-237.79 -18.04,-67.3 -99.73,-135.02 -166.42,-135.75 -141.27,-1.54 -195.71,126.7 -224.74,249.39"
           style="fill:#f79179;fill-opacity:1;fill-rule:evenodd;stroke:none"
           id="path150" /><path
           d="m 3008.33,4268.32 c -86.67,42.34 -189.96,30.97 -265.34,-29.22 -75.36,-60.19 -109.3,-158.4 -87.18,-252.3 26.59,-2.87 51.75,7.65 72.56,24.46 19.96,16.13 47.65,21.29 72.54,14.97 27.81,-7.06 57.08,6.47 65.46,33.91 8.51,27.95 32.3,50.52 61.51,51.26 30.28,0.76 58.32,15.83 70.97,43.37 -0.41,-17.03 10.76,-31.16 26.42,-37.86 15.95,-6.82 20.56,-26.05 18.13,-54.43 -1.92,-22.53 10.38,-44.35 38.27,-57.97 25.21,-12.31 34.57,-34.15 17.33,-69.79 -5.26,-10.89 -9.08,-22.39 -3.87,-33.3 5.21,-10.93 16.23,-17.91 28.34,-17.96 53.65,202.49 15.28,330.76 -115.14,384.86"
           style="fill:#57afcf;fill-opacity:1;fill-rule:evenodd;stroke:none"
           id="path152" /><path
           d="m 2792.29,3965.01 c 14.95,13.15 36.13,16.53 54.41,8.69"
           style="fill:none;stroke:#342c49;stroke-width:8.99986;stroke-linecap:round;stroke-linejoin:round;stroke-miterlimit:22.9256;stroke-dasharray:none;stroke-opacity:1"
           id="path154" /><path
           d="m 3019.8,3965.01 c -14.95,13.15 -36.13,16.53 -54.41,8.69"
           style="fill:none;stroke:#342c49;stroke-width:8.99986;stroke-linecap:round;stroke-linejoin:round;stroke-miterlimit:22.9256;stroke-dasharray:none;stroke-opacity:1"
           id="path156" /><path
           d="m 2784.79,4069.12 c 14.21,11.83 34.18,13.85 50.48,5.14"
           style="fill:#57afcf;fill-opacity:1;fill-rule:evenodd;stroke:none"
           id="path158" /><path
           d="m 3017.45,4069.12 c -14.21,11.83 -34.18,13.85 -50.48,5.14"
           style="fill:none;stroke:#342c49;stroke-width:8.99986;stroke-linecap:round;stroke-linejoin:round;stroke-miterlimit:22.9256;stroke-dasharray:none;stroke-opacity:1"
           id="path160" /><path
           d="m 2826.92,3737.55 c -27.35,46.61 -40.89,100.11 -42.16,154.15 35.49,21.04 53.23,31.56 53.23,31.56 40.32,30.36 104.47,22.6 192.42,-23.27 -3.47,-112.41 -28.48,-177.99 -73.75,-199.5 -46.74,-22.2 -103.56,-7.58 -129.74,37.06"
           style="fill:#ffffff;fill-opacity:1;fill-rule:evenodd;stroke:none"
           id="path162" /><path
           d="m 3015.82,3866.47 c -3.98,9.77 -3.83,20.71 0.39,30.37 67.83,14.21 101.74,21.29 101.74,21.29 -0.28,-13.68 -0.41,-20.63 -0.39,-20.89 -67.83,-20.52 -101.74,-30.77 -101.74,-30.77"
           style="fill:#ffffff;fill-opacity:1;fill-rule:evenodd;stroke:none"
           id="path164" /><path
           d="m 2998.07,3774.59 c -3.25,-8.12 -6,-16.4 -8.28,-24.85 30.22,-11.56 45.34,-17.35 45.34,-17.35 6.79,4.75 12.45,10.95 16.56,18.14 -35.75,16.03 -53.62,24.06 -53.62,24.06"
           style="fill:#ffffff;fill-opacity:1;fill-rule:evenodd;stroke:none"
           id="path166" /><path
           d="m 2801.31,3866.47 c 3.98,9.77 3.84,20.71 -0.39,30.37 -67.82,14.21 -101.73,21.29 -101.73,21.29 0.28,-13.68 0.41,-20.63 0.38,-20.89 67.82,-20.52 101.74,-30.77 101.74,-30.77"
           style="fill:#ffffff;fill-opacity:1;fill-rule:evenodd;stroke:none"
           id="path168" /><path
           d="m 2825.37,3778.54 c 3.25,-8.13 6,-16.41 8.28,-24.85 -30.22,-11.57 -45.34,-17.34 -45.34,-17.34 -6.79,4.73 -12.45,10.94 -16.56,18.13 35.75,16.04 53.62,24.06 53.62,24.06"
           style="fill:#ffffff;fill-opacity:1;fill-rule:evenodd;stroke:none"
           id="path170" /><path
           d="m 2741.6,3671.44 c 44.61,-54.82 112.59,-85.24 183.19,-81.97 70.61,3.25 140.99,46.13 180.36,104.83"
           style="fill:none;stroke:#f0451d;stroke-width:8.99986;stroke-linecap:round;stroke-linejoin:round;stroke-miterlimit:22.9256;stroke-dasharray:none;stroke-opacity:1"
           id="path172" /><path
           d="m 2952.13,3262.89 c 46.88,-0.09 93.66,4.68 139.59,14.19"
           style="fill:none;stroke:#342c49;stroke-width:8.99986;stroke-linecap:round;stroke-linejoin:round;stroke-miterlimit:22.9256;stroke-dasharray:none;stroke-opacity:1"
           id="path174" /><path
           d="m 2966.31,3491.98 c 46.51,6.47 89.5,23.23 127.77,50.46"
           style="fill:none;stroke:#342c49;stroke-width:8.99986;stroke-linecap:round;stroke-linejoin:round;stroke-miterlimit:22.9256;stroke-dasharray:none;stroke-opacity:1"
           id="path176" /><path
           d="m 2390.78,2480.7 c -24.92,48.57 -22.53,106.64 6.3,152.99 -75.56,-2.09 -150.87,9.39 -222.38,33.91 -28.48,-21.67 -42.09,-57.69 -35.04,-92.78 7.05,-35.09 33.52,-63.07 68.16,-72.04 60.16,-13.06 121.41,-20.45 182.96,-22.08"
           style="fill:#ffffff;fill-opacity:1;fill-rule:evenodd;stroke:none"
           id="path178" /><path
           d="m 3368.63,2474.4 c 24.92,48.56 22.54,106.64 -6.3,152.98 75.56,-2.09 150.89,9.39 222.39,33.91 28.48,-21.66 42.09,-57.69 35.05,-92.77 -7.07,-35.09 -33.53,-63.08 -68.17,-72.05 -60.17,-13.05 -121.42,-20.45 -182.97,-22.07"
           style="fill:#ffffff;fill-opacity:1;fill-rule:evenodd;stroke:none"
           id="path180" /><path
           d="m 2409.7,2647.12 c 304.71,-38.99 624.14,-39.5 928.96,-1.54 43.78,-23.16 67.26,-72.26 57.84,-120.88 -9.43,-48.63 -50.08,-81.89 -98.86,-90.48 -285.16,-50.22 -588.24,-56.8 -872.17,-0.03 -47.09,9.41 -79.82,52.97 -83.36,100.88 -3.54,47.9 23.55,92.85 67.59,112.05"
           style="fill:#ffffff;fill-opacity:1;fill-rule:evenodd;stroke:none"
           id="path182" /><path
           d="m 2838.41,2623.2 c -29.88,-77.15 -25.88,-163.32 11.04,-237.36"
           style="fill:none;stroke:#342c49;stroke-width:8.99986;stroke-linecap:butt;stroke-linejoin:miter;stroke-miterlimit:22.9256;stroke-dasharray:none;stroke-opacity:1"
           id="path184" /><path
           d="m 2833.26,2385.89 c -5.75,-269.18 -3.63,-839.06 6.32,-1709.671"
           style="fill:none;stroke:#ffffff;stroke-width:8.99986;stroke-linecap:round;stroke-linejoin:round;stroke-miterlimit:22.9256;stroke-dasharray:none;stroke-opacity:1"
           id="path186" /><path
           d="m 2774.89,2269.19 c 1.59,-39.62 21.37,-76.29 53.63,-99.36"
           style="fill:none;stroke:#ffffff;stroke-width:8.99986;stroke-linecap:round;stroke-linejoin:round;stroke-miterlimit:22.9256;stroke-dasharray:none;stroke-opacity:1"
           id="path188" /></g></g></g></svg>
