<?xml version="1.0" encoding="UTF-8" standalone="no"?>
<svg
   xmlns:dc="http://purl.org/dc/elements/1.1/"
   xmlns:cc="http://creativecommons.org/ns#"
   xmlns:rdf="http://www.w3.org/1999/02/22-rdf-syntax-ns#"
   xmlns:svg="http://www.w3.org/2000/svg"
   xmlns="http://www.w3.org/2000/svg"
   xmlns:sodipodi="http://sodipodi.sourceforge.net/DTD/sodipodi-0.dtd"
   xmlns:inkscape="http://www.inkscape.org/namespaces/inkscape"
   inkscape:version="1.0 (4035a4fb49, 2020-05-01)"
   sodipodi:docname="people2.svg"
   viewBox="0 0 143.64746 509.12088"
   height="509.12088"
   width="143.64746"
   xml:space="preserve"
   id="svg2"
   version="1.1"><metadata
     id="metadata8"><rdf:RDF><cc:Work
         rdf:about=""><dc:format>image/svg+xml</dc:format><dc:type
           rdf:resource="http://purl.org/dc/dcmitype/StillImage" /><dc:title></dc:title></cc:Work></rdf:RDF></metadata><defs
     id="defs6" /><sodipodi:namedview
     inkscape:current-layer="g12"
     inkscape:window-maximized="1"
     inkscape:window-y="30"
     inkscape:window-x="0"
     inkscape:cy="270.93145"
     inkscape:cx="95.713185"
     inkscape:zoom="0.17952033"
     fit-margin-bottom="0"
     fit-margin-right="0"
     fit-margin-left="0"
     fit-margin-top="0"
     showgrid="false"
     id="namedview4"
     inkscape:window-height="844"
     inkscape:window-width="1440"
     inkscape:pageshadow="2"
     inkscape:pageopacity="0"
     guidetolerance="10"
     gridtolerance="10"
     objecttolerance="10"
     borderopacity="1"
     bordercolor="#666666"
     pagecolor="#ffffff" /><g
     transform="matrix(1.3333333,0,0,-1.3333333,-72.857865,570.83446)"
     inkscape:label="ink_ext_XXXXXX"
     inkscape:groupmode="layer"
     id="g10"><g
       transform="scale(0.1)"
       id="g12"><g
         id="g408"><path
           d="m 1588.6,3327.9 c -94.8,86.81 -183.54,179.99 -265.63,278.91 117.71,1.07 155,1.57 155.47,1.55 66.35,-1.99 128.67,-70.72 131.26,-145.3 3.02,-87.25 4.12,-130.45 -21.1,-135.16"
           style="fill:#342c49;fill-opacity:1;fill-rule:evenodd;stroke:none"
           id="path16" /><path
           d="m 1562.07,3180.21 h 30.87 c 16.97,0 30.85,-13.88 30.85,-30.85 v -210.95 c 0,-16.98 -13.88,-30.85 -30.85,-30.85 h -30.87 v 272.65"
           style="fill:#342c49;fill-opacity:1;fill-rule:evenodd;stroke:none"
           id="path18" /><path
           d="m 918.797,4066.45 c 1.379,-69.01 2.433,-138.02 3.133,-207.04 -30.653,25.42 -48.653,62.98 -49.258,102.8 -0.598,39.82 16.254,77.9 46.125,104.24"
           style="fill:#342c49;fill-opacity:1;fill-rule:evenodd;stroke:none"
           id="path20" /><path
           d="m 1302.6,3584.66 h 141.41 c 77.78,0 141.4,-63.62 141.4,-141.4 v -494.54 c 0,-77.78 -63.62,-141.4 -141.4,-141.4 H 1302.6 v 777.34"
           style="fill:#ffffff;fill-opacity:1;fill-rule:evenodd;stroke:none"
           id="path22" /><path
           d="m 1585.41,3055.22 v -31.25 H 1419.1 v 31.25 h 166.31"
           style="fill:#f0451d;fill-opacity:1;fill-rule:evenodd;stroke:none"
           id="path24" /><path
           d="m 755.605,1992.43 c 180.719,-51.79 270.555,-79.91 269.495,-84.35 10.42,-922.908 15.63,-1384.361 15.63,-1384.361 -326.039,1.023 -489.05,1.543 -489.05,1.543 202.601,132.289 303.906,198.449 303.906,198.449 -66.652,845.809 -99.981,1268.719 -99.981,1268.719"
           style="fill:#f79179;fill-opacity:1;fill-rule:evenodd;stroke:none"
           id="path26" /><path
           d="m 1040.73,523.719 c -326.039,1.023 -489.05,1.543 -489.05,1.543 202.601,132.289 303.906,198.449 303.906,198.449 l -49.055,622.469 c 74.129,-16.95 151.477,-14.96 224.849,5.92 3.16,-276.1 6.23,-552.26 9.35,-828.381"
           style="fill:#ffffff;fill-opacity:1;fill-rule:evenodd;stroke:none"
           id="path28" /><path
           d="m 1043.99,696.922 1.99,-175.051 c -333.031,1.059 -499.546,1.59 -499.546,1.59 l 178.769,116.73 c 55.832,-22.519 162.098,-3.632 318.787,56.731"
           style="fill:#342c49;fill-opacity:1;fill-rule:evenodd;stroke:none"
           id="path30" /><path
           d="m 1112.66,1941.66 c 128.84,-19.43 234.56,-27.5 317.17,-24.2 -35.42,-968.749 -53.13,-1453.128 -53.13,-1453.128 -201.05,1.547 -301.56,2.328 -301.56,2.328 92.7,140.629 139.06,210.942 139.06,210.942 -67.69,842.708 -101.54,1264.058 -101.54,1264.058"
           style="fill:#f79179;fill-opacity:1;fill-rule:evenodd;stroke:none"
           id="path32" /><path
           d="m 1376.7,464.332 c -201.05,1.547 -301.56,2.328 -301.56,2.328 92.7,140.629 139.06,210.942 139.06,210.942 -17.97,223.617 -35.96,447.218 -53.88,670.828 81.37,-22.79 167.56,-22.34 248.75,1.31 -10.72,-295.14 -21.57,-590.271 -32.37,-885.408"
           style="fill:#ffffff;fill-opacity:1;fill-rule:evenodd;stroke:none"
           id="path34" /><path
           d="m 1386.21,662.461 -7.28,-199.609 c -204.09,1.558 -306.12,2.347 -306.12,2.347 l 114.84,174.223 2.4,0.879 c 9.97,-41.903 49.79,-65.68 92.79,-63.449 25.12,1.289 50.02,5.289 69.37,21.378 19.36,16.079 31.5,39.219 33.73,64.27 l 0.27,-0.039"
           style="fill:#342c49;fill-opacity:1;fill-rule:evenodd;stroke:none"
           id="path36" /><path
           d="m 856.738,1498.95 c 22.211,-20.29 56.012,-21.06 79.117,-1.8"
           style="fill:none;stroke:#f0451d;stroke-width:8.99986;stroke-linecap:round;stroke-linejoin:round;stroke-miterlimit:22.9256;stroke-dasharray:none;stroke-opacity:1"
           id="path38" /><path
           d="m 1194.74,1482.04 c 23.59,-18.68 57.35,-17.03 79.03,3.81"
           style="fill:none;stroke:#f0451d;stroke-width:8.99986;stroke-linecap:round;stroke-linejoin:round;stroke-miterlimit:22.9256;stroke-dasharray:none;stroke-opacity:1"
           id="path40" /><path
           d="m 1052.55,2457.33 c -108.761,1.87 -217.198,12.59 -324.23,32.05 -12.789,-195.03 -17.476,-390.52 -14.066,-585.94 113.207,-50.11 239.75,-61.65 360.156,-32.83 -14.57,391.14 -21.86,586.72 -21.86,586.72"
           style="fill:#57afcf;fill-opacity:1;fill-rule:evenodd;stroke:none"
           id="path42" /><path
           d="m 994.734,2452.64 c -0.937,-34.91 3.805,-69.74 14.066,-103.12 6.73,-174.39 24.48,-348.17 53.13,-520.32 134.12,-41.43 269.55,-21.65 406.25,59.38 -35.43,248.95 -53.13,373.43 -53.13,373.43 8.41,69.01 0.94,139.03 -21.87,204.69 -265.63,-9.37 -398.446,-14.06 -398.446,-14.06"
           style="fill:#57afcf;fill-opacity:1;fill-rule:evenodd;stroke:none"
           id="path44" /><path
           d="m 1014.39,2367.66 c -4.48,-106.65 8.53,-274.88 39.06,-504.68"
           style="fill:none;stroke:#342c49;stroke-width:8.99986;stroke-linecap:butt;stroke-linejoin:miter;stroke-miterlimit:22.9256;stroke-dasharray:none;stroke-opacity:1"
           id="path46" /><path
           d="m 1375.95,3596.06 c 25.81,-6.45 269.63,-53.52 138.15,-376.25 -53.81,-132.11 -87.87,-227.38 -106.91,-283.97 5.37,-162.68 9.02,-325.42 10.96,-488.2 -244.52,-38.42 -494.263,-27.25 -734.377,32.82 3.321,130.93 13.696,262.55 31.133,394.85 -47.363,2.2 -92.847,24.18 -124.047,62.59 -46.019,56.63 -46.871,134.1 -11.703,198.01 53.914,98 212.461,370.55 290.539,435.14 162.425,58.93 338.625,66.9 506.255,25.01"
           style="fill:#342c49;fill-opacity:1;fill-rule:evenodd;stroke:none"
           id="path48" /><path
           d="m 780.801,3206.24 c 6.469,4.63 13.262,8.8 20.312,12.5 9.848,134.7 61.782,289.34 136.723,382.82 -26.094,-5.92 -52.289,-12.99 -76.582,-24.21 C 794.145,3467.5 756.41,3332.64 780.801,3206.24"
           style="fill:#ffffff;fill-opacity:1;fill-rule:evenodd;stroke:none"
           id="path50" /><path
           d="m 1292.28,3622.17 c 38.23,-2.93 75.72,-12.16 110.94,-27.32 -56.28,-75.17 -83.73,-168.04 -77.36,-261.72 -30.72,-52.61 -39.83,-86.72 -39.83,-86.72 -42.15,119.88 -43.95,259.02 6.25,375.76"
           style="fill:#ffffff;fill-opacity:1;fill-rule:evenodd;stroke:none"
           id="path52" /><path
           d="m 587.871,3079.42 c 50.508,45.83 75.777,68.75 75.777,68.75 -2.363,12.52 2.856,25.24 13.321,32.5 10.469,7.25 24.211,7.69 35.117,1.1"
           style="fill:none;stroke:#ffffff;stroke-width:8.99986;stroke-linecap:round;stroke-linejoin:round;stroke-miterlimit:22.9256;stroke-dasharray:none;stroke-opacity:1"
           id="path54" /><path
           d="m 790.16,2998.17 c 40.453,-21.38 90.25,-12.7 121.098,21.09"
           style="fill:none;stroke:#ffffff;stroke-width:8.99986;stroke-linecap:round;stroke-linejoin:round;stroke-miterlimit:22.9256;stroke-dasharray:none;stroke-opacity:1"
           id="path56" /><path
           d="M 890.945,3002.07 C 838.895,2919.63 780.301,2877.7 715.16,2876.29"
           style="fill:none;stroke:#ffffff;stroke-width:8.99986;stroke-linecap:round;stroke-linejoin:round;stroke-miterlimit:22.9256;stroke-dasharray:none;stroke-opacity:1"
           id="path58" /><path
           d="m 1328.08,3335.28 c -81.77,-180.73 -122.66,-271.1 -122.66,-271.1"
           style="fill:none;stroke:#ffffff;stroke-width:8.99986;stroke-linecap:butt;stroke-linejoin:miter;stroke-miterlimit:22.9256;stroke-dasharray:none;stroke-opacity:1"
           id="path60" /><path
           d="m 1278.09,3026.68 c -87.18,39.31 -169.94,87.75 -246.89,144.53 -22.52,-74.11 -64.63,-140.78 -121.88,-192.96 258.28,-212.49 423.66,-226.04 496.11,-40.63"
           style="fill:none;stroke:#ffffff;stroke-width:8.99986;stroke-linecap:round;stroke-linejoin:round;stroke-miterlimit:22.9256;stroke-dasharray:none;stroke-opacity:1"
           id="path62" /><path
           d="m 1223.76,3256.73 c -1.04,-27.54 13.46,-53.34 37.5,-66.79"
           style="fill:none;stroke:#ffffff;stroke-width:8.99986;stroke-linecap:round;stroke-linejoin:round;stroke-miterlimit:22.9256;stroke-dasharray:none;stroke-opacity:1"
           id="path64" /><path
           d="m 663.848,3145.61 c 3.312,-23.03 18.554,-55.59 30.863,-71.87"
           style="fill:none;stroke:#ffffff;stroke-width:8.99986;stroke-linecap:round;stroke-linejoin:round;stroke-miterlimit:22.9256;stroke-dasharray:none;stroke-opacity:1"
           id="path66" /><path
           d="m 960.137,2336.79 c 11.57,-25.97 29.926,-48.38 53.123,-64.84"
           style="fill:none;stroke:#342c49;stroke-width:8.99986;stroke-linecap:butt;stroke-linejoin:miter;stroke-miterlimit:22.9256;stroke-dasharray:none;stroke-opacity:1"
           id="path68" /><path
           d="m 953.012,3184.3 c -58.336,-3.09 -108.461,40.97 -112.899,99.21 30.473,36.46 45.707,54.68 45.707,54.68 -18.59,23.45 -25.629,54.02 -19.144,83.22 11.203,19.66 9.988,44.09 -3.121,62.51 -6.305,8.86 -7.328,21.48 0.746,28.77 8.078,7.27 22.492,6.65 30.898,-0.27 14.461,-11.89 23.832,-28.93 25,-47.65 7.641,29.35 25.266,56.32 51.957,70.71 18.711,10.09 32.174,3.8 35.934,-14.06 2.3,-10.99 -2.25,-26.73 -11.719,-46.88 9.359,19.51 25.469,37.91 46.879,41.02 23.98,3.47 36.31,-20.43 28.91,-41.02 -5.43,-15.11 -11.82,-29.86 -21.1,-42.97 12.74,18.06 45.85,56.77 67.73,28.05 6.41,-8.41 4.87,-21.32 1.02,-31.18 -34.2,-87.91 -74.6,-138.18 -124.224,-149.61 -28.379,-63.02 -42.574,-94.53 -42.574,-94.53"
           style="fill:#f79179;fill-opacity:1;fill-rule:evenodd;stroke:none"
           id="path70" /><path
           d="m 971.793,3227.69 c 8.039,-3.01 14.574,-9.46 17.988,-17.75 3.399,-8.28 3.367,-17.63 -0.109,-25.72 0,0 -6.484,-6.52 29.468,-34.24 -16.48,-56.62 -47.679,-106.85 -90.093,-145.12 -21.211,17.36 -25.652,21.1 -50.492,42.37 -66.481,-11.49 -132.563,24 -164.504,87.78 -2.949,4.39 -3.848,9.92 -2.453,15.01 1.394,5.09 4.933,9.17 9.601,11.05 -9.379,10.94 -10.695,27.06 -3.211,39.14 7.489,12.09 21.875,17.11 34.969,12.17 -6.934,13.99 -4.379,30.94 6.285,41.53 10.664,10.59 26.836,12.27 39.629,4.11 -7.637,15.38 -3.875,34.08 8.926,44.41 12.805,10.33 30.969,9.32 43.109,-2.41 9.551,-56.3 59.063,-95.74 112.496,-89.61 5.602,11.53 8.391,17.28 8.391,17.28"
           style="fill:#f79179;fill-opacity:1;fill-rule:evenodd;stroke:none"
           id="path72" /><path
           d="m 853.363,3298.05 c -0.59,-28.75 14.387,-55.58 39.176,-70.17 24.789,-14.57 55.527,-14.63 80.359,-0.14"
           style="fill:none;stroke:#342c49;stroke-width:8.99986;stroke-linecap:round;stroke-linejoin:round;stroke-miterlimit:22.9256;stroke-dasharray:none;stroke-opacity:1"
           id="path74" /><path
           d="m 1339.38,3880.45 c 31.42,83.47 34.98,174.53 -17.96,246.31 -52.96,71.77 -142.46,106.72 -230.05,89.83 -87.57,-16.89 -174.948,-70.9 -180.12,-168.94 -4.18,-79.17 -4.746,-158.88 5.469,-237.51 8.914,-68.56 56.254,-126.18 121.731,-148.39 65.48,-22.2 139.11,-1.97 192.35,42.14 53.31,44.16 80.92,103.09 108.58,176.56"
           style="fill:#f79179;fill-opacity:1;fill-rule:evenodd;stroke:none"
           id="path76" /><path
           d="m 1129.7,3757.85 h 66.4 c 19.77,0 35.94,-16.17 35.94,-35.94 v -94.53 c 0,-48.99 -40.07,-89.06 -89.06,-89.06 h -43.75 c -31.8,0 -57.81,26 -57.81,57.81 v 73.44 c 0,48.56 39.72,88.28 88.28,88.28"
           style="fill:#f79179;fill-opacity:1;fill-rule:evenodd;stroke:none"
           id="path78" /><path
           d="m 1236.46,3642.85 v -13.71 c 0,-51.26 -41.93,-93.19 -93.19,-93.19 h -45.78 c -33.28,0 -60.49,27.21 -60.49,60.49 v 5.07 c 45.25,-13.14 93.86,-12.63 137.83,4.32 22.45,8.65 42.79,22.02 61.63,37.02"
           style="fill:#342c49;fill-opacity:1;fill-rule:evenodd;stroke:none"
           id="path80" /><path
           d="m 1359.38,3898.46 c -46.13,-0.49 -88.62,25 -109.9,65.92 -21.3,40.94 -17.77,90.35 9.12,127.84 -109.54,-63.17 -238.54,-74.59 -361.737,-46.09 -42.226,9.76 -46.054,48.22 1.575,125 48.015,77.42 139.332,116.92 230.092,109.17 90.77,-7.76 170.33,-63.82 208.2,-146.67 47.22,-17.44 80.29,-60.36 85.12,-110.48 4.82,-50.1 -19.45,-98.55 -62.47,-124.69"
           style="fill:#342c49;fill-opacity:1;fill-rule:evenodd;stroke:none"
           id="path82" /><path
           d="m 1037.99,3945.36 c 7.75,-11.91 0.19,-31.06 -22.65,-57.42"
           style="fill:none;stroke:#342c49;stroke-width:8.99986;stroke-linecap:round;stroke-linejoin:round;stroke-miterlimit:22.9256;stroke-dasharray:none;stroke-opacity:1"
           id="path84" /><path
           d="m 973.539,3885.63 c 23.457,0 42.581,27.18 42.581,60.54 0,33.35 -19.124,60.55 -42.581,60.55 -23.457,0 -42.578,-27.2 -42.578,-60.55 0,-33.36 19.121,-60.54 42.578,-60.54 z"
           style="fill:none;stroke:#342c49;stroke-width:8.99986;stroke-linecap:butt;stroke-linejoin:miter;stroke-miterlimit:22.9256;stroke-dasharray:none;stroke-opacity:1"
           id="path86" /><path
           d="m 1144.24,3877.35 c 37,0 67.19,29.06 67.19,64.69 0,35.62 -30.19,64.68 -67.19,64.68 -37,0 -67.19,-29.06 -67.19,-64.68 0,-35.63 30.19,-64.69 67.19,-64.69 z"
           style="fill:none;stroke:#342c49;stroke-width:8.99986;stroke-linecap:butt;stroke-linejoin:miter;stroke-miterlimit:22.9256;stroke-dasharray:none;stroke-opacity:1"
           id="path88" /><path
           d="m 1209.86,3927.02 c 89.59,-18.74 134.37,-28.12 134.37,-28.12"
           style="fill:none;stroke:#342c49;stroke-width:8.99986;stroke-linecap:butt;stroke-linejoin:miter;stroke-miterlimit:22.9256;stroke-dasharray:none;stroke-opacity:1"
           id="path90" /><path
           d="m 1077.83,3957.49 c -20.59,8.08 -43.48,8.08 -64.06,0"
           style="fill:none;stroke:#342c49;stroke-width:8.99986;stroke-linecap:butt;stroke-linejoin:miter;stroke-miterlimit:22.9256;stroke-dasharray:none;stroke-opacity:1"
           id="path92" /><path
           d="m 930.727,3948.32 c -16.664,-5.73 -25.004,-8.6 -25.004,-8.6"
           style="fill:none;stroke:#342c49;stroke-width:8.99986;stroke-linecap:butt;stroke-linejoin:miter;stroke-miterlimit:22.9256;stroke-dasharray:none;stroke-opacity:1"
           id="path94" /><path
           d="m 1136.85,4030.01 c 16.65,8.62 36.99,5.29 50,-8.21"
           style="fill:none;stroke:#342c49;stroke-width:8.99986;stroke-linecap:round;stroke-linejoin:round;stroke-miterlimit:22.9256;stroke-dasharray:none;stroke-opacity:1"
           id="path96" /><path
           d="m 994.656,4030.01 c -16.652,8.62 -36.992,5.29 -50.004,-8.21"
           style="fill:none;stroke:#342c49;stroke-width:8.99986;stroke-linecap:round;stroke-linejoin:round;stroke-miterlimit:22.9256;stroke-dasharray:none;stroke-opacity:1"
           id="path98" /><path
           d="m 1403.43,3830.38 c 11.74,13.08 18.29,34.38 14.92,51.64 -3.38,17.28 -15.19,35.32 -32.11,40.16 -33.41,9.59 -66.43,-13.89 -78.52,-46.49 -10.57,-28.51 -20.72,-59.55 -24.21,-73.05 40.35,-13.46 95.44,0.45 119.92,27.74"
           style="fill:#f79179;fill-opacity:1;fill-rule:evenodd;stroke:none"
           id="path100" /><path
           d="m 1322.75,3822.33 c -2.62,2.59 -3.77,6.32 -3.06,9.94 0.71,3.61 4.09,6.06 7.75,6.08 16.62,0.19 22.74,10.27 20.13,30.28 -0.99,7.46 1.76,14.97 7.8,19.5 6.05,4.52 14.44,5.88 20.91,1.98 6.61,-3.99 10.03,-11.77 10.3,-19.48 0.26,-7.74 -3.03,-15.17 -8.93,-20.17"
           style="fill:none;stroke:#342c49;stroke-width:8.99986;stroke-linecap:butt;stroke-linejoin:miter;stroke-miterlimit:22.9256;stroke-dasharray:none;stroke-opacity:1"
           id="path102" /><path
           d="m 1373.35,3890.5 c -7.33,2.15 -15.23,0.15 -20.67,-5.19 -5.43,-5.35 -7.53,-13.23 -5.51,-20.59 7.39,-5.23 17.45,-4.43 23.9,1.93 6.43,6.33 7.4,16.4 2.28,23.85"
           style="fill:#342c49;fill-opacity:1;fill-rule:evenodd;stroke:none"
           id="path104" /><path
           d="m 905.496,3861.74 c -7.273,-74.96 28.336,-147.62 92.051,-187.77 63.713,-40.17 144.623,-40.96 209.113,-2.06 64.5,38.9 101.54,110.84 95.73,185.93 -71.73,-20.42 -148.37,-14.88 -216.42,15.63 -40.5,20.31 -81.13,20.84 -121.884,1.56 -18.727,-7.43 -38.492,-11.9 -58.59,-13.29"
           style="fill:#ffffff;fill-opacity:1;fill-rule:evenodd;stroke:none"
           id="path106" /><path
           d="m 947.32,3715.49 c 95.77,-32.41 202.55,-27.72 320.34,14.07"
           style="fill:none;stroke:#f0451d;stroke-width:8.99986;stroke-linecap:round;stroke-linejoin:round;stroke-miterlimit:22.9256;stroke-dasharray:none;stroke-opacity:1"
           id="path108" /><path
           d="m 911.375,3792.06 c 82.57,-23.17 211.225,-20.83 385.955,7.03"
           style="fill:none;stroke:#f0451d;stroke-width:8.99986;stroke-linecap:round;stroke-linejoin:round;stroke-miterlimit:22.9256;stroke-dasharray:none;stroke-opacity:1"
           id="path110" /><path
           d="m 1123.31,3921.7 c 10.76,0 19.53,9.75 19.53,21.69 0,11.94 -8.77,21.69 -19.53,21.69 -10.76,0 -19.53,-9.75 -19.53,-21.69 0,-11.94 8.77,-21.69 19.53,-21.69"
           style="fill:#342c49;fill-opacity:1;fill-rule:evenodd;stroke:none"
           id="path112" /><path
           d="m 965.105,3921.7 c 10.762,0 19.524,9.75 19.524,21.69 0,11.94 -8.762,21.69 -19.524,21.69 -10.761,0 -19.535,-9.75 -19.535,-21.69 0,-11.94 8.774,-21.69 19.535,-21.69"
           style="fill:#342c49;fill-opacity:1;fill-rule:evenodd;stroke:none"
           id="path114" /></g></g></g></svg>
